<svg id="Warstwa_1" data-name="Warstwa 1" xmlns="http://www.w3.org/2000/svg" viewBox="0 0 689 226"><defs><style>.cls-1{fill:#9e00ff;}</style></defs><path d="M31.27,10.42A523,523,0,0,1,13,60.81l1-2.39Q8.68,71.11,2.66,83.49a10.21,10.21,0,0,0-.5,8.9c1.1,2.61,3.5,5.29,6.48,5.79a393.92,393.92,0,0,0,76.76,5.36q10.51-.33,21-1.24a10.72,10.72,0,0,0,7.07-2.93,10,10,0,0,0,0-14.14c-1.86-1.71-4.46-3.16-7.07-2.93a379.66,379.66,0,0,1-64.77.06q-9.15-.78-18.24-2l2.66.35Q20,79.9,14,78.89l6,14.69A542.08,542.08,0,0,0,45,32.89q2.93-8.52,5.56-17.15c1.53-5-1.82-11.12-7-12.3a10.22,10.22,0,0,0-12.3,7Z"/><path d="M99,12.85A594.24,594.24,0,0,0,85.19,81.92a618,618,0,0,0-5.85,72.15q-.39,19.85.53,39.68a10.58,10.58,0,0,0,2.93,7.07,10,10,0,0,0,14.15,0,10,10,0,0,0,2.92-7.07,596.88,596.88,0,0,1,2-83.61q1.11-11.73,2.68-23.42l-.36,2.66q3.78-28,10.19-55.58,1.83-7.84,3.88-15.64a10.39,10.39,0,0,0-1-7.7,10.17,10.17,0,0,0-6-4.6c-5.23-1.19-10.88,1.57-12.3,7Z"/><path d="M204.3,18.5a32.34,32.34,0,0,0-12.2,2.07,46.51,46.51,0,0,0-6.54,3,50.44,50.44,0,0,0-5.89,4.16c-6.17,4.83-10.86,11.56-14.57,18.41-3.62,6.66-6.67,13.67-9.66,20.63-3.38,7.85-6.59,15.77-9.3,23.87-5.12,15.33-8.56,31.47-8.77,47.68a98.35,98.35,0,0,0,.49,11.64c.53,5,1.42,10.21,4.43,14.44a42.35,42.35,0,0,0,8.65,8.83,82.78,82.78,0,0,0,9.77,6.75,71.44,71.44,0,0,0,20.21,7.9,63,63,0,0,0,23.58.6c15.38-2.49,27.93-12.77,36.63-25.24,9-12.83,13.23-28.36,16.76-43.4,3.43-14.57,6.49-29.59,6.19-44.63-.31-15.93-4.64-32.63-15.59-44.66-10.76-11.84-27.38-14-42.52-12.8-3.21.26-6.4.65-9.59,1.08a7.39,7.39,0,0,0-3.85.86,7.53,7.53,0,0,0-3.22,2.06,10,10,0,0,0,0,14.15c1.8,1.65,4.52,3.26,7.07,2.93,8.29-1.1,16.74-2,25.08-.94l-2.66-.36a39.45,39.45,0,0,1,9.84,2.58l-2.39-1a30.49,30.49,0,0,1,6.49,3.78l-2-1.56A31.66,31.66,0,0,1,236,46.61l-1.56-2a49.09,49.09,0,0,1,6.2,10.83l-1-2.39a63.19,63.19,0,0,1,4.17,15.77l-.36-2.66A102.83,102.83,0,0,1,243,92.89l.35-2.66c-1.14,8.49-2.95,16.86-4.92,25.19-2.11,8.89-4.45,17.76-8,26.21l1-2.39A74.36,74.36,0,0,1,222,155.69l1.56-2a55.43,55.43,0,0,1-9.63,9.73l2-1.57a44.49,44.49,0,0,1-9.71,5.7l2.38-1a43.28,43.28,0,0,1-10.54,2.85l2.66-.36a50,50,0,0,1-12.82,0l2.66.36a60.14,60.14,0,0,1-15.18-4.19l2.38,1a67.19,67.19,0,0,1-14.4-8.4l2,1.57a39.77,39.77,0,0,1-7-6.56l1.57,2a16.63,16.63,0,0,1-1.92-3.25l1,2.39a23.08,23.08,0,0,1-1.39-5.54l.36,2.66a106.41,106.41,0,0,1,.48-27.33l-.36,2.66c2.33-17.16,7.91-33.66,14.6-49.56l-1,2.39q3.62-8.55,7.61-16.93a83.49,83.49,0,0,1,8.93-15.22l-1.56,2A41.57,41.57,0,0,1,194,41.75l-2,1.56a34,34,0,0,1,6.93-4.09l-2.39,1a27.37,27.37,0,0,1,6.88-1.91l-2.66.36a24,24,0,0,1,3.59-.18c5.23.11,10.23-4.68,10-10a10.2,10.2,0,0,0-10-10Z"/><path d="M328.51,27.72,308.84,76.14,303.22,90c-1.16,2.86,0,6.43,1.79,8.72s4.78,4.18,7.86,3.94a453.17,453.17,0,0,1,67.84-.33q9.57.66,19.11,1.75c2.38.27,5.45-1.31,7.07-2.93a10,10,0,0,0,0-14.14l-2-1.57a10,10,0,0,0-5.05-1.36A452.94,452.94,0,0,0,332,81.51q-9.58.36-19.15,1.13l9.64,12.66,19.67-48.43L347.8,33c.91-2.24.15-5.71-1-7.7a10,10,0,0,0-13.68-3.59l-2,1.57a9.94,9.94,0,0,0-2.57,4.41Z"/><path d="M385.61,31.19a508,508,0,0,0-32,68.75,381.85,381.85,0,0,0-19.35,70.82,345.16,345.16,0,0,0-4.58,43.16c-.21,5.23,4.75,10.23,10,10a10.21,10.21,0,0,0,10-10q.58-14.78,2.56-29.44l-.36,2.65a372.54,372.54,0,0,1,19.46-77.65q3.84-10.58,8.23-20.93l-1,2.39a505.84,505.84,0,0,1,24.36-49.65,10.42,10.42,0,0,0,1-7.71,10.2,10.2,0,0,0-4.59-6c-4.71-2.49-11-1.29-13.68,3.59Z"/><path class="cls-1" d="M515,53.12c5.23,0,10.24-4.6,10-10a10.18,10.18,0,0,0-10-10c-5.23,0-10.24,4.6-10,10a10.17,10.17,0,0,0,10,10Z"/><path class="cls-1" d="M595.7,47.12c5.23,0,10.24-4.6,10-10a10.19,10.19,0,0,0-10-10c-5.23,0-10.24,4.6-10,10a10.17,10.17,0,0,0,10,10Z"/><path class="cls-1" d="M476.7,167.81a67,67,0,0,1,3.88-12.45l-1,2.39a75.31,75.31,0,0,1,9.63-16.35l-1.56,2a89,89,0,0,1,15.73-15.67l-2,1.56a101.49,101.49,0,0,1,22.54-13l-2.39,1a143.68,143.68,0,0,1,36.19-9.46l-2.66.35a239.55,239.55,0,0,1,45.43-1.64q6.52.36,13,1.22l-2.66-.36a118.32,118.32,0,0,1,29.74,7.77l-2.38-1a73.9,73.9,0,0,1,16.08,9.2l-2-1.56a52.14,52.14,0,0,1,9.22,9.08l-1.56-2a42.43,42.43,0,0,1,5.45,9.26l-1-2.39a48.45,48.45,0,0,1,3.12,11.9l-.35-2.66c1.11,8.45.49,17-.19,25.45a10,10,0,0,0,2.93,7.07,10,10,0,0,0,14.14,0,11.16,11.16,0,0,0,2.93-7.07c.87-10.84,1.42-21.73-.93-32.45a52.64,52.64,0,0,0-15.65-27c-15.85-14.74-37.45-20.85-58.44-23.45a214.27,214.27,0,0,0-31.33-1.28,239.34,239.34,0,0,0-32.62,2.93c-19.53,3.14-39.17,9.82-55.16,21.71a108.59,108.59,0,0,0-11.52,9.67,100.41,100.41,0,0,0-9.77,11.33A79.13,79.13,0,0,0,459,156.33a62.64,62.64,0,0,0-1.57,6.17,10.63,10.63,0,0,0,1,7.7,10.2,10.2,0,0,0,6,4.6,10.1,10.1,0,0,0,7.7-1,10,10,0,0,0,4.6-6Z"/></svg>