<?xml version="1.0" encoding="utf-8"?>
<!-- Generator: Adobe Illustrator 24.1.2, SVG Export Plug-In . SVG Version: 6.00 Build 0)  -->
<svg version="1.1" id="Warstwa_1" xmlns="http://www.w3.org/2000/svg" xmlns:xlink="http://www.w3.org/1999/xlink" x="0px" y="0px"
	 viewBox="0 0 333.3 333.3" style="enable-background:new 0 0 333.3 333.3;" xml:space="preserve">
<style type="text/css">
	.st0{fill:#9E00FF;}
</style>
<path class="st0" d="M88.1,253.8c-1.7,0-3.4-0.7-4.6-1.9L2.9,171.3c-1.2-1.2-1.9-2.8-1.9-4.6s0.7-3.4,1.9-4.6l80.7-80.7
	c1.2-1.2,2.8-1.9,4.6-1.9c1.7,0,3.4,0.7,4.6,1.9c1.2,1.2,1.9,2.8,1.9,4.6c0,1.7-0.7,3.4-1.9,4.6l-69.7,69.7h302.8
	c3.6,0,6.5,2.9,6.5,6.5s-2.9,6.5-6.5,6.5H23.1l69.6,69.6c1.2,1.2,1.9,2.8,1.9,4.6s-0.7,3.4-1.9,4.6
	C91.5,253.1,89.8,253.8,88.1,253.8z"/>
</svg>
