<?xml version="1.0" encoding="utf-8"?>
<!-- Generator: Adobe Illustrator 24.1.2, SVG Export Plug-In . SVG Version: 6.00 Build 0)  -->
<svg version="1.1" id="Warstwa_1" xmlns="http://www.w3.org/2000/svg" xmlns:xlink="http://www.w3.org/1999/xlink" x="0px" y="0px"
	 viewBox="0 0 448 512" style="enable-background:new 0 0 448 512;" xml:space="preserve">
<style type="text/css">
	.st0{fill:#2D2D2D;}
</style>
<path class="st0" d="M64,32C28.7,32,0,60.7,0,96v320c0,35.3,28.7,64,64,64h320c35.3,0,64-28.7,64-64V96c0-35.3-28.7-64-64-64H64z
	 M218,271.7L64.2,172.4C66,156.4,79.5,144,96,144h256c16.5,0,30,12.4,31.8,28.4L230,271.7c-1.8,1.2-3.9,1.8-6,1.8
	S219.8,272.9,218,271.7z M247.4,298.6L384,210.4V336c0,17.7-14.3,32-32,32H96c-17.7,0-32-14.3-32-32V210.4l136.6,88.2
	c7,4.5,15.1,6.9,23.4,6.9S240.4,303.1,247.4,298.6L247.4,298.6z"/>
</svg>
